<svg width="3705" height="2176" viewBox="0 0 3705 2176" fill="none" xmlns="http://www.w3.org/2000/svg">
 <path fill-rule="evenodd" clip-rule="evenodd" d="M887.942 69.04L20.7022 936.28C-66.0077 1022.99 198.852 1197.99 492.762 1237.11C942.472 1296.95 1319.24 1112.12 1968.87 1113.65C2091.49 1113.94 2189.45 966.26 2070.54 936.28L1730.7 850.58L1630.62 496.36L1203.3 69.04C1116.58 -17.68 974.662 -17.68 887.942 69.04V69.04Z" fill="#FEFEFE" stroke="#2B2A29" stroke-width="7.62" stroke-miterlimit="22.9256"/>
 <path fill-rule="evenodd" clip-rule="evenodd" d="M1679.12 175.66L509.523 1345.27C392.573 1462.22 749.773 1698.23 1146.15 1750.99C1752.66 1831.69 2260.79 1582.42 3136.93 1584.48C3302.3 1584.87 3434.41 1385.7 3274.04 1345.26L2815.71 1229.69L2680.75 751.97L2104.43 175.66C1987.47 58.71 1796.08 58.71 1679.12 175.66V175.66Z" fill="#FEFEFE" stroke="#2B2A29" stroke-width="7.62" stroke-miterlimit="22.9256"/>
 <path fill-rule="evenodd" clip-rule="evenodd" d="M3160.75 1265.85C3105.26 1265.85 3100.68 1267.3 3044.37 1253.52C2993.51 1241.08 2950.65 1215.36 2910.35 1184.78C2864.23 1149.79 2827.31 1094.85 2803.99 1042.54C2789.34 1009.68 2770.68 937.8 2776.1 891.83C2780.07 858.15 2775.39 854.63 2786.23 811.99C2796.89 770.05 2817.92 722.15 2842.88 688.8C2884.75 632.89 2925.65 597.41 2992.07 566.46C3013.42 556.51 3034.48 550.39 3059.53 544.01C3072.71 540.65 3084.24 539.16 3098.71 537.34L3182.45 537.13C3222.35 542.64 3253.31 549.76 3289.44 565.9C3352.33 594 3399.64 634.41 3439.06 687.81C3475.26 736.84 3501.25 806.4 3506.24 869.23C3506.83 876.72 3505.76 884.08 3506.83 891.61C3509.45 909.99 3504.11 953.44 3500.29 972.42C3495.33 997.03 3488.42 1020.89 3479.28 1041.33C3450.53 1105.65 3416.19 1151.79 3360.24 1193.82C3324.64 1220.56 3283.87 1241.17 3239.74 1253.16C3217.66 1259.16 3187.78 1265.85 3160.75 1265.85V1265.85ZM2582.43 835.64C2582.43 866.57 2599.98 900.71 2610.64 922.04C2631.96 964.66 2640.62 976.91 2640.62 1026.06C2640.62 1106.2 2608.89 1161.81 2694.92 1213.31C2754.28 1248.84 2780.56 1247.17 2820.81 1311.35C2872.48 1393.75 2881.26 1431.72 2995.53 1412.71C3033.47 1406.4 3030.97 1406.91 3067.3 1406.91C3100.78 1406.91 3148.08 1433.98 3176.39 1444.16C3246.77 1469.46 3275.56 1448.68 3325.15 1398.52L3364.03 1363.35C3408.8 1325.42 3481.64 1332.29 3525.43 1306.11C3534.3 1300.81 3539.8 1297.26 3546.87 1290.53C3553.14 1284.56 3558.6 1277.5 3562.78 1269.41C3591.3 1214.14 3577.15 1155.64 3613.5 1101.5C3639.44 1062.85 3700.28 1015.86 3700.28 966.12C3700.28 907.06 3642.09 847.46 3642.09 793.33C3642.09 700.79 3672.96 637.03 3589.13 588.87C3573.48 579.88 3557.67 571.43 3540.98 562.97C3448.43 516.07 3455.44 447.88 3402.58 405.15C3352.29 364.5 3291.63 394.85 3234.8 394.85C3168.21 394.85 3156.88 374.09 3098.84 354.5C3067.08 343.78 3037.93 340.81 3008.75 359.22C2995.91 367.32 2985.66 375.05 2975.17 385.6L2929.04 429.38C2922.8 434.26 2918.03 438.01 2912.15 442.47C2851.35 488.6 2748.38 458.49 2713.62 545.44C2691.06 601.87 2704.22 653.55 2664.55 706.18L2630.46 746.14C2626.92 749.95 2626.74 751.2 2623.4 754.95C2612.99 766.63 2606.12 775.26 2597.73 789.23C2591.1 800.27 2582.43 819.02 2582.43 835.64V835.64Z" fill="#00A0E3" stroke="black" stroke-width="7.62" stroke-miterlimit="22.9256"/>
 <path fill-rule="evenodd" clip-rule="evenodd" d="M2970.33 1995.8C3000.08 1995.8 3008.51 2003.45 3028.1 2020.9L3194.67 2162.88C3201.15 2168.79 3212.18 2174.71 3220.97 2168.99C3229.43 2163.5 3231.21 2153.07 3232.77 2141.87L3330.01 1466.85C3322.68 1468.56 3308.2 1482.13 3290.66 1490.98C3232.1 1520.49 3178.73 1501.81 3122.56 1476.83C3033.39 1437.17 3035.7 1468.62 2940.36 1468.62C2888.22 1468.62 2856.47 1448.06 2827.9 1415.33C2822.17 1408.76 2806.71 1390.17 2804.59 1382.22C2799.15 1386.21 2801.47 1386.31 2800.26 1395.53L2709.08 2032.52C2706.42 2051.36 2698.28 2084.19 2707.21 2094.95C2713.51 2102.56 2724.48 2101.43 2733.51 2097.53L2811.4 2062.55C2828.78 2055.48 2845.37 2046.75 2863.79 2039.14L2889.22 2027.54C2907.12 2018.85 2954.93 1995.8 2970.33 1995.8V1995.8Z" fill="#00A0E3" stroke="black" stroke-width="7.62" stroke-miterlimit="22.9256"/>
 <path fill-rule="evenodd" clip-rule="evenodd" d="M3330.01 1819.49C3340.24 1824.39 3594.14 1898.83 3599.78 1898.83C3633.86 1898.83 3624.74 1873.8 3618.48 1846.62C3601.78 1774.2 3587.29 1695.97 3570.49 1623.08C3565.49 1601.36 3561.02 1581.23 3556.72 1559.28C3552.37 1537.05 3547.26 1517.59 3542.9 1495.52L3515.14 1366.35C3506.46 1367.08 3492.87 1371.49 3483.76 1373.76C3473.7 1376.28 3461.38 1379.35 3451.31 1381.87C3427.69 1387.77 3411.04 1390.72 3394.61 1404.51C3386.06 1411.69 3388.83 1412.87 3385.67 1434.35C3383.79 1447.12 3382.39 1457.11 3380.37 1469.61C3369.52 1536.88 3360.63 1610.03 3350.41 1679.43L3330.01 1819.49V1819.49Z" fill="#00A0E3" stroke="black" stroke-width="7.62" stroke-miterlimit="22.9256"/>
</svg>
