<svg width="3696" height="2161" viewBox="0 0 3696 2161" fill="none" xmlns="http://www.w3.org/2000/svg">
 <path fill-rule="evenodd" clip-rule="evenodd" d="M2784 1532.66C2784 1647.18 2392.92 1740 1910.5 1740C1428.08 1740 1037 1647.18 1037 1532.66V321H2784V1532.66Z" fill="#FEFEFE" stroke="#2B2A29" stroke-width="7.62" stroke-miterlimit="22.9256"/>
 <path d="M1910.5 529C2392.92 529 2784 436.099 2784 321.5C2784 206.901 2392.92 114 1910.5 114C1428.08 114 1037 206.901 1037 321.5C1037 436.099 1428.08 529 1910.5 529Z" fill="#FEFEFE" stroke="#2B2A29" stroke-width="7.62" stroke-miterlimit="22.9256"/>
 <path d="M1910.5 432C2242.7 432 2512 382.527 2512 321.5C2512 260.473 2242.7 211 1910.5 211C1578.3 211 1309 260.473 1309 321.5C1309 382.527 1578.3 432 1910.5 432Z" fill="#EBECEC" stroke="#2B2A29" stroke-width="7.62" stroke-miterlimit="22.9256"/>
 <path fill-rule="evenodd" clip-rule="evenodd" d="M1556 1923.56C1556 1976.83 1374 2020 1149.5 2020C925.001 2020 743 1976.83 743 1923.56V1360H1556V1923.56Z" fill="#00A0E3" stroke="#2B2A29" stroke-width="7.62" stroke-miterlimit="22.9256"/>
 <path d="M1149.5 1456C1374 1456 1556 1412.79 1556 1359.5C1556 1306.21 1374 1263 1149.5 1263C924.997 1263 743 1306.21 743 1359.5C743 1412.79 924.997 1456 1149.5 1456Z" fill="#00A0E3" stroke="#2B2A29" stroke-width="7.62" stroke-miterlimit="22.9256"/>
 <path d="M1149 1411C1303.64 1411 1429 1387.94 1429 1359.5C1429 1331.06 1303.64 1308 1149 1308C994.364 1308 869 1331.06 869 1359.5C869 1387.94 994.364 1411 1149 1411Z" fill="#EBECEC" stroke="#2B2A29" stroke-width="7.62" stroke-miterlimit="22.9256"/>
</svg>
