<svg width="3696" height="2161" viewBox="0 0 3696 2161" fill="none" xmlns="http://www.w3.org/2000/svg">
 <path fill-rule="evenodd" clip-rule="evenodd" d="M716.47 1874.37H2964.19V625.64L2393.34 31H716.47V1874.37Z" fill="#EBECEC" stroke="#2B2A29" stroke-width="7.62" stroke-miterlimit="22.9256"/>
 <path fill-rule="evenodd" clip-rule="evenodd" d="M716.47 1874.37H2964.19V625.64H2393.34V31H716.47V1874.37Z" fill="#FEFEFE" stroke="#2B2A29" stroke-width="7.62" stroke-miterlimit="22.9256"/>
 <path fill-rule="evenodd" clip-rule="evenodd" d="M716.47 1874.37H2964.19V625.64H2393.34V31H716.47V1874.37Z" fill="#FEFEFE" stroke="#2B2A29" stroke-width="7.62" stroke-miterlimit="22.9256"/>
 <path d="M1879.4 973.02H1373.76V1443.04H1879.4V973.02Z" stroke="#2B2A29" stroke-width="7.62" stroke-miterlimit="22.9256"/>
 <path fill-rule="evenodd" clip-rule="evenodd" d="M1383.31 439.17H1494.16H1531.64V649.43H1710.23V439.17H1736.69H1888.95V909.19H1383.31V439.17Z" stroke="#2B2A29" stroke-width="7.62" stroke-miterlimit="22.9256"/>
 <path fill-rule="evenodd" clip-rule="evenodd" d="M1993.33 980.14H2141.03V1069.44H2351.29V980.14H2498.97V1141.88H2356.43V1320.47H2498.97V1450.16H1993.33V980.14Z" stroke="#2B2A29" stroke-width="7.62" stroke-miterlimit="22.9256"/>
 <path fill-rule="evenodd" clip-rule="evenodd" d="M1213.38 1293.67L1286.59 965.72L925.19 1031.45L97 1779.74L385.2 2041.97L1213.38 1293.67Z" fill="#FEFEFE" stroke="#2B2A29" stroke-width="7.62" stroke-miterlimit="22.9256"/>
 <path fill-rule="evenodd" clip-rule="evenodd" d="M1183.97 1320.43L1213.38 1293.67L1086.43 1231.67L1069.31 1163.97L990.4 1144.66L925.19 1031.45L895.58 1058.38L97 1779.74L385.2 2041.97L1183.97 1320.43Z" fill="#00A0E3" stroke="#2B2A29" stroke-width="7.62" stroke-miterlimit="22.9256"/>
 <path fill-rule="evenodd" clip-rule="evenodd" d="M1087.07 1232.25L1069.31 1163.97L989.8 1143.76L193.91 1867.92L291.17 1956.42L1087.07 1232.25Z" fill="#FEFEFE" stroke="#2B2A29" stroke-width="7.62" stroke-miterlimit="22.9256"/>
 <path fill-rule="evenodd" clip-rule="evenodd" d="M1286.59 965.72L1118.08 996.36L1252.54 1118.25L1286.59 965.72Z" fill="#B2B3B3" stroke="#2B2A29" stroke-width="7.62" stroke-miterlimit="22.9256"/>
</svg>
