<svg width="3696" height="2162" viewBox="0 0 3696 2162" fill="none" xmlns="http://www.w3.org/2000/svg">
 <path fill-rule="evenodd" clip-rule="evenodd" d="M1870.58 1802.02C1870.58 1837.45 1750.17 1866.17 1601.65 1866.17C1453.12 1866.17 1332.71 1837.45 1332.71 1802.02V1427.15H1870.58V1802.02V1802.02Z" fill="#FEFEFE" stroke="#2B2A29" stroke-width="7.62" stroke-miterlimit="22.9256"/>
 <path d="M1601.65 1491.3C1750.18 1491.3 1870.59 1462.58 1870.59 1427.15C1870.59 1391.72 1750.18 1363 1601.65 1363C1453.12 1363 1332.71 1391.72 1332.71 1427.15C1332.71 1462.58 1453.12 1491.3 1601.65 1491.3Z" fill="#FEFEFE" stroke="#2B2A29" stroke-width="7.62" stroke-miterlimit="22.9256"/>
 <path d="M1601.65 1461.28C1703.96 1461.28 1786.89 1446 1786.89 1427.15C1786.89 1408.3 1703.96 1393.02 1601.65 1393.02C1499.34 1393.02 1416.41 1408.3 1416.41 1427.15C1416.41 1446 1499.34 1461.28 1601.65 1461.28Z" fill="#EBECEC" stroke="#2B2A29" stroke-width="7.62" stroke-miterlimit="22.9256"/>
 <path fill-rule="evenodd" clip-rule="evenodd" d="M2514.36 1806.11C2514.36 1841.54 2393.95 1870.26 2245.43 1870.26C2096.9 1870.26 1976.49 1841.54 1976.49 1806.11V1431.24H2514.36V1806.11Z" fill="#FEFEFE" stroke="#2B2A29" stroke-width="7.62" stroke-miterlimit="22.9256"/>
 <path d="M2245.43 1495.39C2393.96 1495.39 2514.37 1466.67 2514.37 1431.24C2514.37 1395.81 2393.96 1367.09 2245.43 1367.09C2096.9 1367.09 1976.49 1395.81 1976.49 1431.24C1976.49 1466.67 2096.9 1495.39 2245.43 1495.39Z" fill="#FEFEFE" stroke="#2B2A29" stroke-width="7.62" stroke-miterlimit="22.9256"/>
 <path d="M2245.43 1465.37C2347.74 1465.37 2430.67 1450.09 2430.67 1431.24C2430.67 1412.39 2347.74 1397.11 2245.43 1397.11C2143.13 1397.11 2060.19 1412.39 2060.19 1431.24C2060.19 1450.09 2143.13 1465.37 2245.43 1465.37Z" fill="#EBECEC" stroke="#2B2A29" stroke-width="7.62" stroke-miterlimit="22.9256"/>
 <path fill-rule="evenodd" clip-rule="evenodd" d="M3158.15 1793.2C3158.15 1828.63 3037.74 1857.35 2889.22 1857.35C2740.69 1857.35 2620.28 1828.63 2620.28 1793.2V1418.33H3158.15V1793.2V1793.2Z" fill="#FEFEFE" stroke="#2B2A29" stroke-width="7.62" stroke-miterlimit="22.9256"/>
 <path d="M2889.22 1482.48C3037.75 1482.48 3158.16 1453.76 3158.16 1418.33C3158.16 1382.9 3037.75 1354.18 2889.22 1354.18C2740.69 1354.18 2620.28 1382.9 2620.28 1418.33C2620.28 1453.76 2740.69 1482.48 2889.22 1482.48Z" fill="#FEFEFE" stroke="#2B2A29" stroke-width="7.62" stroke-miterlimit="22.9256"/>
 <path d="M2889.22 1452.46C2991.52 1452.46 3074.46 1437.18 3074.46 1418.33C3074.46 1399.48 2991.52 1384.2 2889.22 1384.2C2786.91 1384.2 2703.98 1399.48 2703.98 1418.33C2703.98 1437.18 2786.91 1452.46 2889.22 1452.46Z" fill="#EBECEC" stroke="#2B2A29" stroke-width="7.62" stroke-miterlimit="22.9256"/>
 <path fill-rule="evenodd" clip-rule="evenodd" d="M1521.06 1393.41C1521.06 1428.84 1400.65 1457.56 1252.13 1457.56C1103.6 1457.56 983.19 1428.84 983.19 1393.41V1018.54H1521.06V1393.41V1393.41Z" fill="#FEFEFE" stroke="#2B2A29" stroke-width="7.62" stroke-miterlimit="22.9256"/>
 <path d="M1252.13 1082.69C1400.66 1082.69 1521.07 1053.97 1521.07 1018.54C1521.07 983.111 1400.66 954.39 1252.13 954.39C1103.6 954.39 983.19 983.111 983.19 1018.54C983.19 1053.97 1103.6 1082.69 1252.13 1082.69Z" fill="#FEFEFE" stroke="#2B2A29" stroke-width="7.62" stroke-miterlimit="22.9256"/>
 <path d="M1252.13 1052.67C1354.44 1052.67 1437.37 1037.39 1437.37 1018.54C1437.37 999.691 1354.44 984.41 1252.13 984.41C1149.83 984.41 1066.89 999.691 1066.89 1018.54C1066.89 1037.39 1149.83 1052.67 1252.13 1052.67Z" fill="#EBECEC" stroke="#2B2A29" stroke-width="7.62" stroke-miterlimit="22.9256"/>
 <path fill-rule="evenodd" clip-rule="evenodd" d="M2164.84 1397.5C2164.84 1432.93 2044.43 1461.65 1895.91 1461.65C1747.38 1461.65 1626.97 1432.93 1626.97 1397.5V1022.63H2164.84V1397.5Z" fill="#FEFEFE" stroke="#2B2A29" stroke-width="7.62" stroke-miterlimit="22.9256"/>
 <path d="M1895.91 1086.78C2044.44 1086.78 2164.85 1058.06 2164.85 1022.63C2164.85 987.201 2044.44 958.48 1895.91 958.48C1747.38 958.48 1626.97 987.201 1626.97 1022.63C1626.97 1058.06 1747.38 1086.78 1895.91 1086.78Z" fill="#FEFEFE" stroke="#2B2A29" stroke-width="7.62" stroke-miterlimit="22.9256"/>
 <path d="M1895.91 1056.76C1998.22 1056.76 2081.15 1041.48 2081.15 1022.63C2081.15 1003.78 1998.22 988.5 1895.91 988.5C1793.6 988.5 1710.67 1003.78 1710.67 1022.63C1710.67 1041.48 1793.6 1056.76 1895.91 1056.76Z" fill="#EBECEC" stroke="#2B2A29" stroke-width="7.62" stroke-miterlimit="22.9256"/>
 <path fill-rule="evenodd" clip-rule="evenodd" d="M2808.63 1384.59C2808.63 1420.02 2688.22 1448.74 2539.7 1448.74C2391.17 1448.74 2270.76 1420.02 2270.76 1384.59V1009.72H2808.63V1384.59Z" fill="#FEFEFE" stroke="#2B2A29" stroke-width="7.62" stroke-miterlimit="22.9256"/>
 <path d="M2539.7 1073.87C2688.23 1073.87 2808.64 1045.15 2808.64 1009.72C2808.64 974.291 2688.23 945.57 2539.7 945.57C2391.17 945.57 2270.76 974.291 2270.76 1009.72C2270.76 1045.15 2391.17 1073.87 2539.7 1073.87Z" fill="#FEFEFE" stroke="#2B2A29" stroke-width="7.62" stroke-miterlimit="22.9256"/>
 <path d="M2539.7 1043.85C2642.01 1043.85 2724.94 1028.57 2724.94 1009.72C2724.94 990.871 2642.01 975.59 2539.7 975.59C2437.39 975.59 2354.46 990.871 2354.46 1009.72C2354.46 1028.57 2437.39 1043.85 2539.7 1043.85Z" fill="#EBECEC" stroke="#2B2A29" stroke-width="7.62" stroke-miterlimit="22.9256"/>
 <path fill-rule="evenodd" clip-rule="evenodd" d="M1791.21 955.35C1791.21 990.78 1670.8 1019.5 1522.28 1019.5C1373.75 1019.5 1253.34 990.78 1253.34 955.35V580.48H1791.21V955.35Z" fill="#FEFEFE" stroke="#2B2A29" stroke-width="7.62" stroke-miterlimit="22.9256"/>
 <path d="M1522.28 644.63C1670.81 644.63 1791.22 615.909 1791.22 580.48C1791.22 545.051 1670.81 516.33 1522.28 516.33C1373.75 516.33 1253.34 545.051 1253.34 580.48C1253.34 615.909 1373.75 644.63 1522.28 644.63Z" fill="#FEFEFE" stroke="#2B2A29" stroke-width="7.62" stroke-miterlimit="22.9256"/>
 <path d="M1522.28 614.61C1624.59 614.61 1707.52 599.33 1707.52 580.48C1707.52 561.631 1624.59 546.35 1522.28 546.35C1419.97 546.35 1337.04 561.631 1337.04 580.48C1337.04 599.33 1419.97 614.61 1522.28 614.61Z" fill="#EBECEC" stroke="#2B2A29" stroke-width="7.62" stroke-miterlimit="22.9256"/>
 <path fill-rule="evenodd" clip-rule="evenodd" d="M2434.99 959.44C2434.99 994.87 2314.58 1023.59 2166.06 1023.59C2017.53 1023.59 1897.12 994.87 1897.12 959.44V584.57H2434.99V959.44V959.44Z" fill="#FEFEFE" stroke="#2B2A29" stroke-width="7.62" stroke-miterlimit="22.9256"/>
 <path d="M2166.06 648.72C2314.59 648.72 2435 619.999 2435 584.57C2435 549.141 2314.59 520.42 2166.06 520.42C2017.53 520.42 1897.12 549.141 1897.12 584.57C1897.12 619.999 2017.53 648.72 2166.06 648.72Z" fill="#FEFEFE" stroke="#2B2A29" stroke-width="7.62" stroke-miterlimit="22.9256"/>
 <path d="M2166.06 618.7C2268.37 618.7 2351.3 603.419 2351.3 584.57C2351.3 565.72 2268.37 550.44 2166.06 550.44C2063.76 550.44 1980.82 565.72 1980.82 584.57C1980.82 603.419 2063.76 618.7 2166.06 618.7Z" fill="#EBECEC" stroke="#2B2A29" stroke-width="7.62" stroke-miterlimit="22.9256"/>
 <path fill-rule="evenodd" clip-rule="evenodd" d="M2069.01 562.02C2069.01 597.45 1948.6 626.17 1800.08 626.17C1651.55 626.17 1531.14 597.45 1531.14 562.02V187.15H2069.01V562.02V562.02Z" fill="#FEFEFE" stroke="#2B2A29" stroke-width="7.62" stroke-miterlimit="22.9256"/>
 <path d="M1800.08 251.3C1948.61 251.3 2069.02 222.579 2069.02 187.15C2069.02 151.721 1948.61 123 1800.08 123C1651.55 123 1531.14 151.721 1531.14 187.15C1531.14 222.579 1651.55 251.3 1800.08 251.3Z" fill="#FEFEFE" stroke="#2B2A29" stroke-width="7.62" stroke-miterlimit="22.9256"/>
 <path d="M1800.08 221.28C1902.39 221.28 1985.32 205.999 1985.32 187.15C1985.32 168.301 1902.39 153.02 1800.08 153.02C1697.77 153.02 1614.84 168.301 1614.84 187.15C1614.84 205.999 1697.77 221.28 1800.08 221.28Z" fill="#EBECEC" stroke="#2B2A29" stroke-width="7.62" stroke-miterlimit="22.9256"/>
 <path fill-rule="evenodd" clip-rule="evenodd" d="M1226.8 1814.93C1226.8 1850.36 1106.39 1879.08 957.87 1879.08C809.34 1879.08 688.93 1850.36 688.93 1814.93V1440.06H1226.8V1814.93V1814.93Z" fill="#FEFEFE" stroke="#2B2A29" stroke-width="7.62" stroke-miterlimit="22.9256"/>
 <path d="M957.87 1504.21C1106.4 1504.21 1226.81 1475.49 1226.81 1440.06C1226.81 1404.63 1106.4 1375.91 957.87 1375.91C809.338 1375.91 688.93 1404.63 688.93 1440.06C688.93 1475.49 809.338 1504.21 957.87 1504.21Z" fill="#FEFEFE" stroke="#2B2A29" stroke-width="7.62" stroke-miterlimit="22.9256"/>
 <path d="M957.87 1474.19C1060.18 1474.19 1143.11 1458.91 1143.11 1440.06C1143.11 1421.21 1060.18 1405.93 957.87 1405.93C855.565 1405.93 772.63 1421.21 772.63 1440.06C772.63 1458.91 855.565 1474.19 957.87 1474.19Z" fill="#EBECEC" stroke="#2B2A29" stroke-width="7.62" stroke-miterlimit="22.9256"/>
 <path fill-rule="evenodd" clip-rule="evenodd" d="M1367.81 1944.69C1367.81 1999.29 1182.27 2043.54 953.41 2043.54C724.54 2043.54 539 1999.29 539 1944.69V1367.05H1367.81V1944.69V1944.69Z" fill="#00A0E3" stroke="#2B2A29" stroke-width="7.62" stroke-miterlimit="22.9256"/>
 <path d="M953.41 1465.9C1182.28 1465.9 1367.82 1421.64 1367.82 1367.05C1367.82 1312.46 1182.28 1268.2 953.41 1268.2C724.538 1268.2 539 1312.46 539 1367.05C539 1421.64 724.538 1465.9 953.41 1465.9Z" fill="#00A0E3" stroke="#2B2A29" stroke-width="7.62" stroke-miterlimit="22.9256"/>
 <path d="M953.41 1419.64C1111.05 1419.64 1238.85 1396.09 1238.85 1367.05C1238.85 1338.01 1111.05 1314.46 953.41 1314.46C795.766 1314.46 667.97 1338.01 667.97 1367.05C667.97 1396.09 795.766 1419.64 953.41 1419.64Z" fill="#EBECEC" stroke="#2B2A29" stroke-width="7.62" stroke-miterlimit="22.9256"/>
</svg>
